<?xml version="1.0" encoding="UTF-8" standalone="no"?><svg xmlns="http://www.w3.org/2000/svg" xmlns:xlink="http://www.w3.org/1999/xlink" contentScriptType="application/ecmascript" contentStyleType="text/css" height="675px" preserveAspectRatio="none" style="width:469px;height:675px;background:#FFFFFF;" version="1.1" viewBox="0 0 469 675" width="469px" zoomAndPan="magnify"><defs><filter height="300%" id="f1th98y26l4vl6" width="300%" x="-1" y="-1"><feGaussianBlur result="blurOut" stdDeviation="2.0"/><feColorMatrix in="blurOut" result="blurOut2" type="matrix" values="0 0 0 0 0 0 0 0 0 0 0 0 0 0 0 0 0 0 .4 0"/><feOffset dx="4.0" dy="4.0" in="blurOut2" result="blurOut3"/><feBlend in="SourceGraphic" in2="blurOut3" mode="normal"/></filter></defs><g><!--MD5=[aa8f7b917213fcc1c2766e2d59b49067]
cluster java.lang--><polygon fill="#FFFFFF" filter="url(#f1th98y26l4vl6)" points="44,6,113,6,120,29.6094,355,29.6094,355,134,44,134,44,6" style="stroke:#000000;stroke-width:1.5;"/><line style="stroke:#000000;stroke-width:1.5;" x1="44" x2="120" y1="29.6094" y2="29.6094"/><text fill="#000000" font-family="sans-serif" font-size="14" font-weight="bold" lengthAdjust="spacing" textLength="63" x="48" y="22.5332">java.lang</text><!--MD5=[a85938c63302a5e81d6b03887db00592]
cluster de.thro.inf.prg3.a04.collections--><polygon fill="#FFFFFF" filter="url(#f1th98y26l4vl6)" points="16,158,240,158,247,181.6094,452,181.6094,452,668,16,668,16,158" style="stroke:#000000;stroke-width:1.5;"/><line style="stroke:#000000;stroke-width:1.5;" x1="16" x2="247" y1="181.6094" y2="181.6094"/><text fill="#000000" font-family="sans-serif" font-size="14" font-weight="bold" lengthAdjust="spacing" textLength="218" x="20" y="174.5332">de.thro.inf.prg3.a04.collections</text><!--MD5=[47de47a8b5f06cbc5e036fae0a9149b7]
class Iterable--><rect codeLine="3" fill="#FEFECE" filter="url(#f1th98y26l4vl6)" height="61.8359" id="Iterable" style="stroke:#A80036;stroke-width:1.5;" width="126" x="213" y="49"/><ellipse cx="246" cy="65" fill="#B4A7E5" rx="11" ry="11" style="stroke:#A80036;stroke-width:1.0;"/><path d="M247,62 L247,68 L249,68 L249.4844,68 L250,68.625 L250,69 L250,69.375 L249.4844,70 L249,70 L243,70 L242.5156,70 L242,69.375 L242,69 L242,68.625 L242.5156,68 L243,68 L245,68 L245,62 L243,62 L242.5156,62 L242,61.375 L242,61 L242,60.625 L242.5156,60 L243,60 L249,60 L249.4844,60 L250,60.625 L250,61 L250,61.375 L249.4844,62 L249,62 L247,62 Z " fill="#000000"/><text fill="#000000" font-family="sans-serif" font-size="12" font-style="italic" lengthAdjust="spacing" textLength="43" x="264" y="69.9102">Iterable</text><rect fill="#FFFFFF" height="17.0938" style="stroke:#000000;stroke-width:1.0;stroke-dasharray:2.0,2.0;" width="9" x="333" y="46"/><text fill="#000000" font-family="sans-serif" font-size="12" font-style="italic" lengthAdjust="spacing" textLength="7" x="334" y="59.457">T</text><line style="stroke:#A80036;stroke-width:1.5;" x1="214" x2="338" y1="81" y2="81"/><line style="stroke:#A80036;stroke-width:1.5;" x1="214" x2="338" y1="89" y2="89"/><ellipse cx="224" cy="100" fill="#84BE84" rx="3" ry="3" style="stroke:#038048;stroke-width:1.0;"/><text fill="#000000" font-family="sans-serif" font-size="11" lengthAdjust="spacing" textLength="100" x="233" y="104.4189">iterator(): Iterator&lt;T&gt;</text><!--MD5=[023ecf6702e3ca2ce47ae747eafb20f1]
class Iterator--><rect codeLine="7" fill="#FEFECE" filter="url(#f1th98y26l4vl6)" height="75.6719" id="Iterator" style="stroke:#A80036;stroke-width:1.5;" width="118" x="60" y="42"/><ellipse cx="91.2" cy="58" fill="#B4A7E5" rx="11" ry="11" style="stroke:#A80036;stroke-width:1.0;"/><path d="M92.2,55 L92.2,61 L94.2,61 L94.6844,61 L95.2,61.625 L95.2,62 L95.2,62.375 L94.6844,63 L94.2,63 L88.2,63 L87.7156,63 L87.2,62.375 L87.2,62 L87.2,61.625 L87.7156,61 L88.2,61 L90.2,61 L90.2,55 L88.2,55 L87.7156,55 L87.2,54.375 L87.2,54 L87.2,53.625 L87.7156,53 L88.2,53 L94.2,53 L94.6844,53 L95.2,53.625 L95.2,54 L95.2,54.375 L94.6844,55 L94.2,55 L92.2,55 Z " fill="#000000"/><text fill="#000000" font-family="sans-serif" font-size="12" font-style="italic" lengthAdjust="spacing" textLength="39" x="108.8" y="62.9102">Iterator</text><rect fill="#FFFFFF" height="17.0938" style="stroke:#000000;stroke-width:1.0;stroke-dasharray:2.0,2.0;" width="9" x="172" y="39"/><text fill="#000000" font-family="sans-serif" font-size="12" font-style="italic" lengthAdjust="spacing" textLength="7" x="173" y="52.457">T</text><line style="stroke:#A80036;stroke-width:1.5;" x1="61" x2="177" y1="74" y2="74"/><line style="stroke:#A80036;stroke-width:1.5;" x1="61" x2="177" y1="82" y2="82"/><ellipse cx="71" cy="93" fill="#84BE84" rx="3" ry="3" style="stroke:#038048;stroke-width:1.0;"/><text fill="#000000" font-family="sans-serif" font-size="11" lengthAdjust="spacing" textLength="92" x="80" y="97.4189">hasNext(): boolean</text><ellipse cx="71" cy="106.8359" fill="#84BE84" rx="3" ry="3" style="stroke:#038048;stroke-width:1.0;"/><text fill="#000000" font-family="sans-serif" font-size="11" lengthAdjust="spacing" textLength="41" x="80" y="111.2549">next(): T</text><!--MD5=[2fc307995a77e1ff0d3f050568daae73]
class SimpleList--><rect codeLine="15" fill="#FEFECE" filter="url(#f1th98y26l4vl6)" height="158.6875" id="SimpleList" style="stroke:#A80036;stroke-width:1.5;" width="259" x="176.5" y="194"/><ellipse cx="267.25" cy="210" fill="#B4A7E5" rx="11" ry="11" style="stroke:#A80036;stroke-width:1.0;"/><path d="M268.25,207 L268.25,213 L270.25,213 L270.7344,213 L271.25,213.625 L271.25,214 L271.25,214.375 L270.7344,215 L270.25,215 L264.25,215 L263.7656,215 L263.25,214.375 L263.25,214 L263.25,213.625 L263.7656,213 L264.25,213 L266.25,213 L266.25,207 L264.25,207 L263.7656,207 L263.25,206.375 L263.25,206 L263.25,205.625 L263.7656,205 L264.25,205 L270.25,205 L270.7344,205 L271.25,205.625 L271.25,206 L271.25,206.375 L270.7344,207 L270.25,207 L268.25,207 Z " fill="#000000"/><text fill="#000000" font-family="sans-serif" font-size="12" font-style="italic" lengthAdjust="spacing" textLength="58" x="287.75" y="214.9102">SimpleList</text><rect fill="#FFFFFF" height="17.0938" style="stroke:#000000;stroke-width:1.0;stroke-dasharray:2.0,2.0;" width="9" x="429.5" y="191"/><text fill="#000000" font-family="sans-serif" font-size="12" font-style="italic" lengthAdjust="spacing" textLength="7" x="430.5" y="204.457">T</text><line style="stroke:#A80036;stroke-width:1.5;" x1="177.5" x2="434.5" y1="226" y2="226"/><line style="stroke:#A80036;stroke-width:1.5;" x1="177.5" x2="434.5" y1="234" y2="234"/><ellipse cx="187.5" cy="245" fill="#84BE84" rx="3" ry="3" style="stroke:#038048;stroke-width:1.0;"/><text fill="#000000" font-family="sans-serif" font-size="11" lengthAdjust="spacing" textLength="57" x="196.5" y="249.4189">add(item: T)</text><ellipse cx="187.5" cy="258.8359" fill="#84BE84" rx="3" ry="3" style="stroke:#038048;stroke-width:1.0;"/><text fill="#000000" font-family="sans-serif" font-size="11" lengthAdjust="spacing" textLength="78" x="196.5" y="263.2549">get(index: int): T</text><ellipse cx="187.5" cy="272.6719" fill="#84BE84" rx="3" ry="3" style="stroke:#038048;stroke-width:1.0;"/><text fill="#000000" font-family="sans-serif" font-size="11" lengthAdjust="spacing" textLength="126" x="196.5" y="277.0908">void set(index: int, item: T)</text><ellipse cx="187.5" cy="286.5078" fill="#84BE84" rx="3" ry="3" style="stroke:#038048;stroke-width:1.0;"/><text fill="#000000" font-family="sans-serif" font-size="11" lengthAdjust="spacing" textLength="137" x="196.5" y="290.9268">addDefault(clazz: Class&lt;T&gt;)</text><ellipse cx="187.5" cy="300.3438" fill="#84BE84" rx="3" ry="3" style="stroke:#038048;stroke-width:1.0;"/><text fill="#000000" font-family="sans-serif" font-size="11" lengthAdjust="spacing" textLength="146" x="196.5" y="304.7627">makeInstance(): SimpleList&lt;T&gt;</text><ellipse cx="187.5" cy="314.1797" fill="#84BE84" rx="3" ry="3" style="stroke:#038048;stroke-width:1.0;"/><text fill="#000000" font-family="sans-serif" font-size="11" lengthAdjust="spacing" textLength="45" x="196.5" y="318.5986">size(): int</text><ellipse cx="187.5" cy="328.0156" fill="#84BE84" rx="3" ry="3" style="stroke:#038048;stroke-width:1.0;"/><text fill="#000000" font-family="sans-serif" font-size="11" lengthAdjust="spacing" textLength="215" x="196.5" y="332.4346">filter(predicate: Predicate&lt;T&gt;): SimpleList&lt;T&gt;</text><ellipse cx="187.5" cy="341.8516" fill="#84BE84" rx="3" ry="3" style="stroke:#038048;stroke-width:1.0;"/><text fill="#000000" font-family="sans-serif" font-size="11" lengthAdjust="spacing" textLength="233" x="196.5" y="346.2705">forEach(consumer: Consumer&lt;? super T&gt;): void</text><!--MD5=[74237e9ecd45c2c288ba960a22a95c9b]
class SimpleListImpl--><rect codeLine="26" fill="#FEFECE" filter="url(#f1th98y26l4vl6)" height="61.8359" id="SimpleListImpl" style="stroke:#A80036;stroke-width:1.5;" width="126" x="243" y="413"/><ellipse cx="258" cy="429" fill="#ADD1B2" rx="11" ry="11" style="stroke:#A80036;stroke-width:1.0;"/><path d="M260,425.5 Q260.2031,425 260.4375,424.75 Q260.6719,424.5 260.9375,424.5 Q261.4063,424.5 261.7031,424.7813 Q262,425.0625 262,425.7188 L262,427.2813 Q262,427.9375 261.7188,428.2188 Q261.4375,428.5 261,428.5 Q260.6094,428.5 260.3594,428.3281 Q260.1094,428.1563 260,427.7031 Q259.9531,427.3906 259.7813,427.2188 Q259.4688,426.8906 258.9063,426.7031 Q258.3438,426.5 257.7813,426.5 Q257.0781,426.5 256.4844,426.7813 Q255.9063,427.0625 255.4531,427.6875 Q255,428.3125 255,429.1719 L255,430.0938 Q255,431.125 255.8438,431.8125 Q256.6875,432.5 258.1875,432.5 Q259.0781,432.5 259.7031,432.2969 Q260.0625,432.1875 260.4688,431.8281 Q260.7344,431.625 260.875,431.5625 Q261.0156,431.5 261.1875,431.5 Q261.5156,431.5 261.75,431.7656 Q262,432.0156 262,432.375 Q262,432.7188 261.6563,433.125 Q261.1563,433.7188 260.3594,434.0469 Q259.3125,434.5 258.0313,434.5 Q256.5313,434.5 255.3281,433.9063 Q254.3594,433.4375 253.6719,432.4219 Q253,431.4063 253,430.2031 L253,429.1094 Q253,427.8594 253.5938,426.7656 Q254.2031,425.6719 255.25,425.0938 Q256.3125,424.5 257.5,424.5 Q258.2188,424.5 258.8438,424.75 Q259.4688,425 260,425.5 Z " fill="#000000"/><text fill="#000000" font-family="sans-serif" font-size="12" lengthAdjust="spacing" textLength="83" x="272" y="433.9102">SimpleListImpl</text><rect fill="#FFFFFF" height="17.0938" style="stroke:#000000;stroke-width:1.0;stroke-dasharray:2.0,2.0;" width="9" x="363" y="410"/><text fill="#000000" font-family="sans-serif" font-size="12" font-style="italic" lengthAdjust="spacing" textLength="7" x="364" y="423.457">T</text><line style="stroke:#A80036;stroke-width:1.5;" x1="244" x2="368" y1="445" y2="445"/><rect fill="none" height="6" style="stroke:#C82930;stroke-width:1.0;" width="6" x="251" y="453"/><text fill="#000000" font-family="sans-serif" font-size="11" lengthAdjust="spacing" textLength="84" x="263" y="460.4189">head: ListElement</text><line style="stroke:#A80036;stroke-width:1.5;" x1="244" x2="368" y1="466.8359" y2="466.8359"/><!--MD5=[d54a61f60015120e7559dc228d39022b]
class SimpleIterator--><rect codeLine="30" fill="#FEFECE" filter="url(#f1th98y26l4vl6)" height="48" id="SimpleIterator" style="stroke:#A80036;stroke-width:1.5;" width="109" x="32.5" y="249.5"/><ellipse cx="47.5" cy="265.5" fill="#ADD1B2" rx="11" ry="11" style="stroke:#A80036;stroke-width:1.0;"/><path d="M49.5,262 Q49.7031,261.5 49.9375,261.25 Q50.1719,261 50.4375,261 Q50.9063,261 51.2031,261.2813 Q51.5,261.5625 51.5,262.2188 L51.5,263.7813 Q51.5,264.4375 51.2188,264.7188 Q50.9375,265 50.5,265 Q50.1094,265 49.8594,264.8281 Q49.6094,264.6563 49.5,264.2031 Q49.4531,263.8906 49.2813,263.7188 Q48.9688,263.3906 48.4063,263.2031 Q47.8438,263 47.2813,263 Q46.5781,263 45.9844,263.2813 Q45.4063,263.5625 44.9531,264.1875 Q44.5,264.8125 44.5,265.6719 L44.5,266.5938 Q44.5,267.625 45.3438,268.3125 Q46.1875,269 47.6875,269 Q48.5781,269 49.2031,268.7969 Q49.5625,268.6875 49.9688,268.3281 Q50.2344,268.125 50.375,268.0625 Q50.5156,268 50.6875,268 Q51.0156,268 51.25,268.2656 Q51.5,268.5156 51.5,268.875 Q51.5,269.2188 51.1563,269.625 Q50.6563,270.2188 49.8594,270.5469 Q48.8125,271 47.5313,271 Q46.0313,271 44.8281,270.4063 Q43.8594,269.9375 43.1719,268.9219 Q42.5,267.9063 42.5,266.7031 L42.5,265.6094 Q42.5,264.3594 43.0938,263.2656 Q43.7031,262.1719 44.75,261.5938 Q45.8125,261 47,261 Q47.7188,261 48.3438,261.25 Q48.9688,261.5 49.5,262 Z " fill="#000000"/><text fill="#000000" font-family="sans-serif" font-size="12" lengthAdjust="spacing" textLength="77" x="61.5" y="270.4102">SimpleIterator</text><line style="stroke:#A80036;stroke-width:1.5;" x1="33.5" x2="140.5" y1="281.5" y2="281.5"/><line style="stroke:#A80036;stroke-width:1.5;" x1="33.5" x2="140.5" y1="289.5" y2="289.5"/><!--MD5=[ec76e9b591c172d6698a784f50b81647]
class ListElement--><rect codeLine="33" fill="#FEFECE" filter="url(#f1th98y26l4vl6)" height="117.1797" id="ListElement" style="stroke:#A80036;stroke-width:1.5;" width="155" x="228.5" y="535"/><ellipse cx="259.25" cy="551" fill="#ADD1B2" rx="11" ry="11" style="stroke:#A80036;stroke-width:1.0;"/><path d="M261.25,547.5 Q261.4531,547 261.6875,546.75 Q261.9219,546.5 262.1875,546.5 Q262.6563,546.5 262.9531,546.7813 Q263.25,547.0625 263.25,547.7188 L263.25,549.2813 Q263.25,549.9375 262.9688,550.2188 Q262.6875,550.5 262.25,550.5 Q261.8594,550.5 261.6094,550.3281 Q261.3594,550.1563 261.25,549.7031 Q261.2031,549.3906 261.0313,549.2188 Q260.7188,548.8906 260.1563,548.7031 Q259.5938,548.5 259.0313,548.5 Q258.3281,548.5 257.7344,548.7813 Q257.1563,549.0625 256.7031,549.6875 Q256.25,550.3125 256.25,551.1719 L256.25,552.0938 Q256.25,553.125 257.0938,553.8125 Q257.9375,554.5 259.4375,554.5 Q260.3281,554.5 260.9531,554.2969 Q261.3125,554.1875 261.7188,553.8281 Q261.9844,553.625 262.125,553.5625 Q262.2656,553.5 262.4375,553.5 Q262.7656,553.5 263,553.7656 Q263.25,554.0156 263.25,554.375 Q263.25,554.7188 262.9063,555.125 Q262.4063,555.7188 261.6094,556.0469 Q260.5625,556.5 259.2813,556.5 Q257.7813,556.5 256.5781,555.9063 Q255.6094,555.4375 254.9219,554.4219 Q254.25,553.4063 254.25,552.2031 L254.25,551.1094 Q254.25,549.8594 254.8438,548.7656 Q255.4531,547.6719 256.5,547.0938 Q257.5625,546.5 258.75,546.5 Q259.4688,546.5 260.0938,546.75 Q260.7188,547 261.25,547.5 Z " fill="#000000"/><rect fill="#F24D5C" height="6" style="stroke:#C82930;stroke-width:1.0;" width="6" x="278.75" y="547.5"/><text fill="#000000" font-family="sans-serif" font-size="12" lengthAdjust="spacing" textLength="66" x="287.75" y="555.9102">ListElement</text><rect fill="#FFFFFF" height="17.0938" style="stroke:#000000;stroke-width:1.0;stroke-dasharray:2.0,2.0;" width="9" x="377.5" y="532"/><text fill="#000000" font-family="sans-serif" font-size="12" font-style="italic" lengthAdjust="spacing" textLength="7" x="378.5" y="545.457">T</text><line style="stroke:#A80036;stroke-width:1.5;" x1="229.5" x2="382.5" y1="567" y2="567"/><rect fill="none" height="6" style="stroke:#C82930;stroke-width:1.0;" width="6" x="236.5" y="575"/><text fill="#000000" font-family="sans-serif" font-size="11" lengthAdjust="spacing" textLength="31" x="248.5" y="582.4189">item: T</text><rect fill="none" height="6" style="stroke:#C82930;stroke-width:1.0;" width="6" x="236.5" y="588.8359"/><text fill="#000000" font-family="sans-serif" font-size="11" lengthAdjust="spacing" textLength="99" x="248.5" y="596.2549">next: ListElement&lt;T&gt;</text><line style="stroke:#A80036;stroke-width:1.5;" x1="229.5" x2="382.5" y1="602.6719" y2="602.6719"/><ellipse cx="239.5" cy="613.6719" fill="#84BE84" rx="3" ry="3" style="stroke:#038048;stroke-width:1.0;"/><text fill="#000000" font-family="sans-serif" font-size="11" lengthAdjust="spacing" textLength="54" x="248.5" y="618.0908">getItem(): T</text><ellipse cx="239.5" cy="627.5078" fill="#84BE84" rx="3" ry="3" style="stroke:#038048;stroke-width:1.0;"/><text fill="#000000" font-family="sans-serif" font-size="11" lengthAdjust="spacing" textLength="123" x="248.5" y="631.9268">getNext(): ListElement&lt;T&gt;</text><ellipse cx="239.5" cy="641.3438" fill="#84BE84" rx="3" ry="3" style="stroke:#038048;stroke-width:1.0;"/><text fill="#000000" font-family="sans-serif" font-size="11" lengthAdjust="spacing" textLength="129" x="248.5" y="645.7627">setNext(e: ListElement&lt;T&gt;)</text><!--MD5=[2e21931a002b1ae8fac06f0aac5056ca]
reverse link Iterable to SimpleList--><path d="M283.89,131.39 C286.89,150.54 290.39,172.83 293.7,193.97 " fill="none" id="Iterable-backto-SimpleList" style="stroke:#A80036;stroke-width:1.0;"/><polygon fill="none" points="276.93,132.19,280.75,111.34,290.76,130.02,276.93,132.19" style="stroke:#A80036;stroke-width:1.0;"/><!--MD5=[9c79a502382212cfa2acddb4573e9f2b]
reverse link SimpleList to SimpleListImpl--><path d="M306,373.54 C306,387.69 306,401.26 306,412.6 " fill="none" id="SimpleList-backto-SimpleListImpl" style="stroke:#A80036;stroke-width:1.0;stroke-dasharray:7.0,7.0;"/><polygon fill="none" points="299,373.32,306,353.32,313,373.32,299,373.32" style="stroke:#A80036;stroke-width:1.0;"/><!--MD5=[6504b5cd804b8a4d7a7b1a87492dee02]
reverse link Iterator to SimpleIterator--><path d="M109.44,138.19 C103.22,175.42 95.44,221.98 90.87,249.36 " fill="none" id="Iterator-backto-SimpleIterator" style="stroke:#A80036;stroke-width:1.0;stroke-dasharray:7.0,7.0;"/><polygon fill="none" points="102.55,136.95,112.75,118.38,116.36,139.26,102.55,136.95" style="stroke:#A80036;stroke-width:1.0;"/><!--MD5=[0cf72cb4f9fe3be05827ac9ea840bde4]
reverse link SimpleListImpl to ListElement--><path codeLine="42" d="M294.14,490.28 C293.22,504.36 293.01,520.09 293.53,534.9 " fill="none" id="SimpleListImpl-backto-ListElement" style="stroke:#A80036;stroke-width:1.0;"/><ellipse cx="294.7715" cy="483.1686" fill="#FFFFFF" rx="8" ry="8" style="stroke:#A80036;stroke-width:1.0;"/><line style="stroke:#A80036;stroke-width:1.0;" x1="294.063" x2="295.48" y1="491.1371" y2="475.2"/><line style="stroke:#A80036;stroke-width:1.0;" x1="286.8029" x2="302.7401" y1="482.4601" y2="483.8771"/><!--MD5=[3d9ecae6dfb378615ef19a46793f7ac8]
link ListElement to SimpleListImpl--><path codeLine="43" d="M319.21,534.9 C319.77,519.45 319.52,503.01 318.43,488.47 " fill="none" id="ListElement-to-SimpleListImpl" style="stroke:#A80036;stroke-width:1.0;"/><polygon fill="#A80036" points="317.14,475.2,313.7388,481.5586,318.3001,487.1438,321.7013,480.7852,317.14,475.2" style="stroke:#A80036;stroke-width:1.0;"/><!--MD5=[1024479e4be39b1ba5f29057c6123f65]
@startuml
package java.lang {
    
    interface Iterable<T> {
        +iterator(): Iterator<T>
    }

    interface Iterator<T> {
        +hasNext(): boolean
        +next(): T
    }
}

package de.thro.inf.prg3.a04.collections {

        interface SimpleList<T> extends Iterable {
            +add(item: T)
            +get(index: int): T
            +void set(index: int, item: T)
            +addDefault(clazz: Class<T>)
            +makeInstance(): SimpleList<T>
            +size(): int
            +filter(predicate: Predicate<T>): SimpleList<T>
            +forEach(consumer: Consumer<? super T>): void
        }

        class SimpleListImpl<T> implements SimpleList {
           -head: ListElement
        }

        class SimpleIterator implements Iterator {
        }

        -class ListElement<T> {
            -item: T
            -next: ListElement<T>
    
            +getItem(): T
            +getNext(): ListElement<T>
            +setNext(e: ListElement<T>)
        }

        SimpleListImpl +- - ListElement
        ListElement - -* SimpleListImpl
    }
@enduml

PlantUML version 1.2021.7(Sun May 23 14:40:07 CEST 2021)
(GPL source distribution)
Java Runtime: OpenJDK Runtime Environment
JVM: OpenJDK 64-Bit Server VM
Default Encoding: Cp1252
Language: de
Country: DE
--></g></svg>